<?xml version="1.0" encoding="UTF-8"?>
<svg width="154px" height="122px" viewBox="0 0 154 122" version="1.1" xmlns="http://www.w3.org/2000/svg" xmlns:xlink="http://www.w3.org/1999/xlink">
    <title>Elements/Illustration/Invoice</title>
    <defs>
        <path d="M6.71131271,53.2261526 L44.3239127,53.2261526 L44.3239127,1.03115265 C44.3239127,0.478867898 43.8761975,0.0311526477 43.3239127,0.0311526477 L7.71131271,0.0311526477 C7.15902796,0.0311526477 6.71131271,0.478867898 6.71131271,1.03115265 L6.71131271,53.2261526 L6.71131271,53.2261526 Z" id="path-1"></path>
        <filter x="-1.3%" y="-0.9%" width="102.7%" height="103.8%" filterUnits="objectBoundingBox" id="filter-2">
            <feOffset dx="0" dy="1" in="SourceAlpha" result="shadowOffsetOuter1"></feOffset>
            <feColorMatrix values="0 0 0 0 0.160784314   0 0 0 0 0.298039216   0 0 0 0 0.415686275  0 0 0 0.340526661 0" type="matrix" in="shadowOffsetOuter1"></feColorMatrix>
        </filter>
    </defs>
    <g id="Elements/Illustration/Invoice" stroke="none" stroke-width="1" fill="none" fill-rule="evenodd">
        <g transform="translate(11.000000, 8.000000)">
            <g id="Group-25-Copy" transform="translate(13.000000, 9.000000)">
                <path d="M26.7936078,31.3978794 C9.1359082,27.8190825 -4.7404485,45.5860402 7.86682869,66.9259586 C36.1769175,114.845504 113.097679,80.5438249 94.1835977,23.7536465 C88.398083,6.3824398 64.1737787,-2.65027529 47.8941908,9.74730553 C38.6132409,16.8151334 36.6165359,33.3887539 26.7936078,31.3978794 Z" id="Mask" fill-opacity="0.29955201" fill="#D8E8FF" transform="translate(50.070182, 46.825775) rotate(-4.000000) translate(-50.070182, -46.825775) "></path>
                <g id="Group" transform="translate(23.000000, 18.000000)">
                    <path d="M24.9243665,23.6491526 C25.6567665,23.6491526 48.9645665,23.6491526 48.9645665,23.6491526 C48.9645665,23.6491526 50.6667665,23.6059526 50.6667665,25.1995526 C50.6667665,26.5809526 50.6667665,50.4615526 50.6667665,57.3649526 C50.6667665,59.1749526 49.0509665,59.0453526 49.0509665,59.0453526 L2.33816652,59.0453526 C2.33816652,59.0453526 0.668566523,59.1965526 0.668566523,57.1069526 C0.668566523,55.0171526 0.668566523,35.5325526 0.668566523,35.5325526 L0.668566523,18.0807526 C0.668566523,18.0807526 0.517566523,16.7881526 2.94116652,16.7881526 C5.36456652,16.7881526 19.0649665,16.7881526 19.0649665,16.7881526 C19.0649665,16.7881526 20.0343665,16.6587526 21.0361665,18.1453526 C22.0377665,19.6315526 24.1919665,23.6491526 24.9243665,23.6491526" id="Fill-5" fill="#294C6A" transform="translate(25.666740, 37.916538) scale(-1, 1) translate(-25.666740, -37.916538) "></path>
                    <path d="M11.7019127,54.4239526 L1.04723708,11.6908478 C0.913625333,11.1549687 1.23972802,10.6122396 1.77560721,10.4786284 C1.77560741,10.4786284 1.77560761,10.4786283 1.77560797,10.4786289 L35.3601222,2.10500018 C36.4318803,1.83778164 37.5173374,2.4899861 37.784563,3.56174247 L50.1699127,53.2359526 L50.1699127,53.2359526 L11.7019127,54.4239526 Z" id="Fill-8" fill="#FFCC80" transform="translate(25.487613, 28.022553) scale(-1, 1) translate(-25.487613, -28.022553) "></path>
                    <path d="M2.77411271,53.5331526 L9.13523973,1.72749835 C9.20255721,1.17933529 9.70149357,0.789522643 10.2496596,0.856816287 L45.5967659,5.19668901 C46.1449349,5.26398817 46.534753,5.76292674 46.4674496,6.31109523 C46.4674494,6.31109665 46.4674492,6.31109808 46.4674448,6.31109898 L40.1065127,58.1173526 L40.1065127,58.1173526 L2.77411271,53.5331526 Z" id="Fill-11" fill="#FFCC80" transform="translate(24.681713, 29.426153) scale(-1, 1) translate(-24.681713, -29.426153) "></path>
                    <g id="Fill-16" transform="translate(25.517613, 26.628653) scale(-1, 1) translate(-25.517613, -26.628653) ">
                        <use fill="black" fill-opacity="1" filter="url(#filter-2)" xlink:href="#path-1"></use>
                        <use fill="#FAFCFB" fill-rule="evenodd" xlink:href="#path-1"></use>
                    </g>
                    <path d="M39.8459661,8.36835265 C39.8458852,8.62297962 39.6394466,8.82935265 39.3848196,8.82935265 L19.3071127,8.82935265 C19.0525094,8.82935265 18.8461127,8.62295592 18.8461127,8.36835265 C18.8461127,8.11374938 19.0525094,7.90735265 19.3071127,7.90735265 L39.3851127,7.90735265 C39.639635,7.90735265 39.8459662,8.11368378 39.8459662,8.36820614 C39.8459662,8.36825497 39.8459662,8.36830381 39.8459661,8.36835265 Z" id="Fill-24" stroke="#68A1FF" stroke-width="1.5" fill="#2AADB1" opacity="0.249511719" transform="translate(29.346113, 8.368353) scale(-1, 1) translate(-29.346113, -8.368353) "></path>
                    <path d="M39.8459626,14.4073526 C39.8458797,14.6619802 39.6394401,14.8683526 39.3848125,14.8683526 L26.3071127,14.8683526 C26.0525094,14.8683526 25.8461127,14.6619559 25.8461127,14.4073526 C25.8461127,14.1527494 26.0525094,13.9463526 26.3071127,13.9463526 L39.3851127,13.9463526 C39.6396331,13.9463526 39.8459627,14.1526822 39.8459627,14.4072026 C39.8459627,14.4072526 39.8459626,14.4073026 39.8459626,14.4073526 Z" id="Fill-24-Copy" stroke="#68A1FF" stroke-width="1.5" fill="#2AADB1" opacity="0.249511719" transform="translate(32.846113, 14.407353) scale(-1, 1) translate(-32.846113, -14.407353) "></path>
                    <path d="M24.9247671,29.0185526 C25.6571671,29.0185526 48.9649671,29.0185526 48.9649671,29.0185526 C48.9649671,29.0185526 50.6667671,28.9753526 50.6667671,30.5693526 C50.6667671,31.9499526 50.6667671,50.4615526 50.6667671,57.3649526 C50.6667671,59.1749526 49.0513671,59.0453526 49.0513671,59.0453526 L2.33816707,59.0453526 C2.33816707,59.0453526 0.668967067,59.1965526 0.668967067,57.1069526 C0.668967067,55.0171526 0.668967067,48.4575526 0.668967067,48.4575526 L0.668967067,23.4499526 C0.668967067,23.4499526 0.517967067,22.1575526 2.94116707,22.1575526 C5.36516707,22.1575526 19.0653671,22.1575526 19.0653671,22.1575526 C19.0653671,22.1575526 20.0347671,22.0283526 21.0365671,23.5143526 C22.0379671,25.0009526 24.1923671,29.0185526 24.9247671,29.0185526" id="Fill-37" fill="#82B1FF" transform="translate(25.666940, 40.601243) scale(-1, 1) translate(-25.666940, -40.601243) "></path>
                    <path d="M14.5910887,20.6125428 L13.4176132,19.4783778 C13.092131,19.1637991 12.5758972,19.1637637 12.250372,19.4782979 C11.9388669,19.7792852 11.9303406,20.2758084 12.2313279,20.5873134 C12.2375416,20.5937442 12.2438648,20.6000682 12.2502947,20.6062827 L13.4240902,21.740757 L13.4240902,21.740757 L14.4246154,22.7072352 C14.5176442,22.7970983 14.6651518,22.7970761 14.7581536,22.7071851 L20.0833937,17.5600655 C20.3948535,17.2590236 20.4032988,16.7624929 20.1022568,16.4510331 C20.0961215,16.4446855 20.0898795,16.438442 20.0835334,16.4323051 C19.7583075,16.1178015 19.2423162,16.117714 18.9169836,16.4321072 L14.5910887,20.6125428 L14.5910887,20.6125428 Z" id="Fill-42" stroke="#294C6A" stroke-width="0.7" fill="#294C6A" stroke-linejoin="round"></path>
                    <g id="Group-24" transform="translate(12.666713, 23.868353)">
                        <g id="Group-2" transform="translate(23.682840, 23.958578) scale(-1, 1) rotate(-45.000000) translate(-23.682840, -23.958578) translate(12.182840, 2.958578)">
                            <polygon id="Fill-1" fill="#294C6A" points="9.8408631 28.6844376 13.0220867 28.6844376 13.0220867 19.4504382 9.8408631 19.4504382"></polygon>
                            <path d="M9.36066416,39.6401528 C9.36066416,40.7068788 10.3739443,41.5728396 11.6243455,41.5728396 C12.8744673,41.5728396 13.8877475,40.7068788 13.8877475,39.6401528 L13.7341383,27.3846437 L9.20705498,27.3846437 L9.36066416,39.6401528 Z" id="Fill-2" stroke="#FFCC80" fill="#FFCC80" stroke-linejoin="round"></path>
                            <path d="M22.0150093,11.4696114 C22.0150093,17.4468901 17.1693019,22.2930407 11.1923188,22.2930407 C5.21504011,22.2930407 0.369332685,17.4468901 0.369332685,11.4696114 C0.369332685,5.49233278 5.21504011,0.647068592 11.1923188,0.647068592 C17.1693019,0.647068592 22.0150093,5.49233278 22.0150093,11.4696114" id="Fill-4" stroke="#B9D0F4" stroke-width="2" fill="#D6E5FC"></path>
                            <path d="M17.917807,9.46189503 C17.2563571,10.35353 15.7365147,8.54632552 13.6664736,7.01082222 C11.5968758,5.47546666 10.4507947,5.34911459 11.1122445,4.45659314 C11.7738421,3.56466267 13.2977046,3.53115574 15.3675979,5.06680678 C17.4377867,6.60260557 18.5792568,8.57026004 17.917807,9.46189503 Z" id="Fill-6" fill="#FFFFFE"></path>
                        </g>
                    </g>
                </g>
                <g id="Group-23" transform="translate(39.166713, 37.368353) scale(-1, 1) translate(-39.166713, -37.368353) translate(34.666713, 33.868353)"></g>
            </g>
            <g id="Group-26">
                <path d="M8.18525697,25.7852842 C8.95062803,25.0199132 8.95062803,23.7786303 8.18525697,23.0132592 C7.41988592,22.2478882 6.17860301,22.2478882 5.41323196,23.0132592 C4.6478609,23.7786303 4.6478609,25.0199132 5.41323196,25.7852842 C6.1789021,26.5509544 7.41988592,26.5509544 8.18525697,25.7852842 Z M7.5515752,33.5663174 L15.9662901,25.1516025 C16.3491252,24.7690964 16.3491252,24.1485746 15.9662901,23.7657395 L15.2735381,23.0729875 C14.890703,22.6901524 14.2701812,22.6901524 13.8876751,23.0729875 L5.47296021,31.4877024 C5.09012514,31.8705375 5.09012514,32.4910294 5.47296021,32.8735653 L6.16571224,33.5663174 C6.54854731,33.9491524 7.16906913,33.9491524 7.5515752,33.5663174 Z M16.0257193,33.6257465 C16.7913894,32.8603755 16.7913894,31.6193917 16.0257193,30.8537215 C15.2603482,30.0883505 14.0190653,30.0883505 13.2536942,30.8537215 C12.4883232,31.6190926 12.4883232,32.8603755 13.2536942,33.6257465 C14.0190653,34.3911176 15.2603482,34.3911176 16.0257193,33.6257465 Z" id="ppercentage" fill="#D9EAFF" fill-rule="nonzero" opacity="0.727794829"></path>
                <path d="M123.753778,44.736771 L132.770321,35.7201975 C133.0765,35.4139892 133.0765,34.9175598 132.770321,34.6113815 L131.661535,33.5025655 C131.355357,33.1963872 130.858898,33.1963872 130.552719,33.5025655 L123.199385,40.8559001 L119.766281,37.4227966 C119.460103,37.1165884 118.963644,37.1165884 118.657465,37.4227966 L117.548679,38.5316126 C117.242501,38.8378209 117.242501,39.3342503 117.548679,39.6404286 L122.644992,44.7367411 C122.95114,45.0429493 123.44757,45.0429493 123.753778,44.736771 Z" id="ccheck" fill="#D9EAFF" fill-rule="nonzero" opacity="0.727794829" transform="translate(125.159500, 39.119666) rotate(2.000000) translate(-125.159500, -39.119666) "></path>
                <path d="M75.0976079,9.33134167 L79.2715354,5.15741421 L80.6802104,6.56608926 C81.3376091,7.22348793 82.4615519,6.75783584 82.4615519,5.82827251 L82.4615519,0.695654577 C82.4619761,0.311312217 82.1506639,1.1812773e-13 81.7663215,1.1812773e-13 L76.633279,1.1812773e-13 C75.7036732,1.1812773e-13 75.2380211,1.12389994 75.8954198,1.78129861 L77.3041373,3.19001611 L74.1141212,6.38045682 L70.9241051,3.19044071 C70.3806249,2.64696057 69.4997625,2.64696057 68.956707,3.19044071 L65.9701987,6.17699144 C65.6984586,6.44873151 65.6984586,6.88916272 65.9701987,7.16090279 L66.953643,8.14438954 C67.225383,8.41612961 67.6658567,8.41612961 67.9375968,8.14438954 L69.9401937,6.14132556 L73.1302098,9.33134167 C73.67369,9.87482181 74.5545524,9.87482181 75.0976079,9.33134167 Z" id="c" fill="#D9EAFF"></path>
                <circle id="Oval-Copy-5" fill="#FFCC80" cx="2.5" cy="55.1999987" r="2.5"></circle>
                <circle id="Oval-Copy-4" fill="#FFCC80" cx="44.7213315" cy="4.67668047" r="4.67668047"></circle>
                <circle id="Oval-Copy-2" fill="#FFE4BB" cx="105.677782" cy="16.0777863" r="3.11778698"></circle>
            </g>
        </g>
    </g>
</svg>